<svg xmlns="http://www.w3.org/2000/svg" viewBox="0 0 415.82 268.69"><defs><style>.cls-1{fill:#fff;}.cls-2{fill:#0d9488;}.cls-3{fill:#05564c;}</style></defs><title>Asset 4map</title><g id="Layer_2" data-name="Layer 2"><g id="Layer_1-2" data-name="Layer 1"><path d="M151.37,222.13l-2-5.52,31.77-30.26,1.61,3.88h0l-1.71,1.41c-5.12,4.25-10.23,8.53-15.22,12.93A74.27,74.27,0,0,0,151.37,222.13Z"/><path class="cls-1" d="M185.78,42.29a22.17,22.17,0,0,1-4.69-3.39Q183.54,40.55,185.78,42.29Z"/><path class="cls-1" d="M215.54,159.32a30.43,30.43,0,0,1-6.81,9.41c-6.19,5.64-12.93,10.68-19.38,16.05L184,189.24l-.71.59-.49.41-1.71,1.41c-5.12,4.25-10.23,8.53-15.22,12.93a74.27,74.27,0,0,0-14.46,17.55c-.69,1.15-1.35,2.31-2,3.49-.45.83-.88,1.66-1.31,2.51s-.89,1.58-1.88,3.3a30.36,30.36,0,0,1-1-4.17,65.15,65.15,0,0,1,4.15-25.48c.16-.44.32-.89.49-1.33,5.75-15.51,14.55-28.84,28-38.7a23,23,0,0,0-2.1-4.34h0c-8.78-.85-17.58-1.55-26.36-2.43-3.09-.3-6.17-.62-9.26-1-6.15-.72-11.81-3.26-17.15-6.46-11.53-6.89-18.88-23.76-8.84-38,.06-.1.12-.18.19-.28,4.12-5.74,8.78-11.11,13.23-16.62,4.74-5.88,8.44-12.32,10.13-19.72a102.93,102.93,0,0,0,1.67-10.48,8.43,8.43,0,0,0-4.19-8.54,72.76,72.76,0,0,0-20.39-9c-4.12-1.12-7.71.49-11.28,2.11C90.07,53,76.68,59.16,63.27,65.23a15.06,15.06,0,0,1-6.68,1.55c3.4-4.36,6.52-9,10.24-13,9.07-9.94,18.72-19.24,30.43-26.19a29.4,29.4,0,0,1,19.26-4.2C136.88,26,156.37,31.1,174,42.25c1,.62,1.91,1.24,2.85,1.87q2.77,1.88,5.4,3.9h0a78.94,78.94,0,0,1,11.46,10.71L180.26,93.52c-5.08,5.22-10,10.49-14.77,16.09-2.86,3.35-5.66,6.82-8.42,10.46,2.9.71,5,1.14,7,1.73,11.61,3.38,23.26,6.65,34.8,10.29a44.73,44.73,0,0,1,10,5C217.21,142.37,219.74,150.36,215.54,159.32Z"/><path class="cls-1" d="M97.08,146.6H95.57l1.11-2.14c.14-.25.27-.51.4-.77Z"/><path class="cls-1" d="M145.39,161.35l-1.77,3.21c-.22.4-.42.79-.62,1.16a26.4,26.4,0,0,1-1.88,3.24A130.4,130.4,0,0,1,106.9,202.5v-8.19a118.11,118.11,0,0,1-11.52,7.36,217.74,217.74,0,0,0-20.3,12.87c-1.81,1.29-3.58,2.61-5.31,4-16.33,12.88-29,28.81-37,48.41a8.07,8.07,0,0,1-1.2,1.74l0,0c-.09,0-.37-.12-.72-.21-1.66-16.8,2.34-32.54,9.74-47.49a83.9,83.9,0,0,1,29.25-33.52A89.92,89.92,0,0,1,79.28,182a22,22,0,0,0,10.13-9.24c4.54-8.34,8.88-16.79,13.25-25.22,1-1.94,1.86-4,3.17-6.81.35.54.71,1.07,1.07,1.59v-2.24a35.06,35.06,0,0,0,12.61,13.2c7.16,4.29,13.47,6.63,19.83,7.37Q142.35,161,145.39,161.35Z"/><path class="cls-1" d="M182.2,48a29.34,29.34,0,0,1-5.4-3.9Q179.58,46,182.2,48Z"/><path class="cls-1" d="M183.25,189.83l-.49.41h0Z"/><path class="cls-1" d="M155.54,228.39c-.19.35-.39.71-.57,1.07s-.38.72-.56,1.08l-.78-2.15Z"/><path class="cls-2" d="M40.52,221c-7.4,14.95-11.4,30.69-9.74,47.49.35.09.63.21.72.21l0,0a8.07,8.07,0,0,0,1.2-1.74c8.06-19.6,20.7-35.53,37-48.41V187.47A83.9,83.9,0,0,0,40.52,221Z"/><path class="cls-2" d="M0,146.6H27.3v89.6A111,111,0,0,1,34.49,218a90.16,90.16,0,0,1,35.28-38.48V146.6H97.08V109.48H0Z"/><path class="cls-2" d="M200.91,125.67a41,41,0,0,1,7.8,3.52l0-.05q-11.21-15.46-34.92-18.76c-1.7,1.9-3.35,3.82-5,5.77l5.16,1.49C182.78,120.19,191.94,122.84,200.91,125.67Z"/><path class="cls-2" d="M123,147.53c5.34,3.2,11,5.74,17.15,6.46,3.09.37,6.17.69,9.26,1v-9.47c1.31,0,2.6,0,3.87.11s2.61.18,4,.33q9,1.1,16.44,8.79a15.76,15.76,0,0,1,2.07,2.67,23,23,0,0,1,2.1,4.34q3.32,8.73,3.3,24.6c0,1.84,0,3.6-.1,5.3l1.71-1.41.49-.41.71-.59,5.39-4.46c6.45-5.37,13.19-10.41,19.38-16.05a30.43,30.43,0,0,0,6.81-9.41c4.2-9,1.67-16.95-6.71-22.2a44.73,44.73,0,0,0-10-5c-11.54-3.64-23.19-6.91-34.8-10.29-2-.59-4.11-1-7-1.73,2.76-3.64,5.56-7.11,8.42-10.46-1.55-.08-3.14-.12-4.75-.13H114.13C104.09,123.77,111.44,140.64,123,147.53Z"/><path class="cls-2" d="M146.19,231.43c1-1.72,1.47-2.5,1.88-3.3s.86-1.68,1.31-2.51V201.78a65.15,65.15,0,0,0-4.15,25.48A30.36,30.36,0,0,0,146.19,231.43Z"/><path class="cls-2" d="M225.38,171.83a90.91,90.91,0,0,0-2.42-13,32.57,32.57,0,0,1-1.32,3.31,37.53,37.53,0,0,1-8.38,11.54c-4.21,3.83-8.66,7.39-12.95,10.84-2.2,1.76-4.47,3.58-6.66,5.4l-4.75,3.93-3.44,2.85q-2.58,2.13-5.17,4.32l-24.75,27.33h-1.91l.78,2.15c-.11.2-.21.4-.31.6-.36.71-.73,1.33-1.18,2.12-.25.41-.53.9-.88,1.51l-8.46,14.82L139.64,233c-.15-.63-.29-1.15-.42-1.61a17.6,17.6,0,0,1-.71-3.75c-.51-9.35,1.14-19,5-29.53a110.52,110.52,0,0,1,5.83-13.1V161.75l-4-.4q-3-.32-6-.67c-6.36-.74-12.67-3.08-19.83-7.37a35.06,35.06,0,0,1-12.61-13.2V268.69h48.49q39,0,54.59-24.52A103.9,103.9,0,0,0,226.36,190v-2.4q0-3.83-.27-7.75C225.91,177.18,225.67,174.53,225.38,171.83Z"/><polygon class="cls-2" points="281.94 206.55 315.47 206.55 315.47 169.43 281.94 169.43 281.94 146.6 320.17 146.6 320.17 109.48 239.47 109.48 239.47 268.69 320.6 268.69 320.6 231.56 281.94 231.56 281.94 206.55"/><polygon class="cls-2" points="377.17 231.56 377.17 206.55 410.68 206.55 410.68 169.43 377.17 169.43 377.17 146.6 415.39 146.6 415.39 109.48 334.69 109.48 334.69 268.69 415.82 268.69 415.82 231.56 377.17 231.56"/><path class="cls-3" d="M137.73,161.3a41.33,41.33,0,0,1-2.11,3.77,123.3,123.3,0,0,1-28.72,29.24,118.11,118.11,0,0,1-11.52,7.36,217.74,217.74,0,0,0-20.3,12.87c-1.81,1.29-3.58,2.61-5.31,4-16.33,12.88-29,28.81-37,48.41a8.07,8.07,0,0,1-1.2,1.74l0,0c-.09,0-.37-.12-.72-.21-1.66-16.8,2.34-32.54,9.74-47.49a83.9,83.9,0,0,1,29.25-33.52A89.92,89.92,0,0,1,79.28,182a22,22,0,0,0,10.13-9.24c4.54-8.34,8.88-16.79,13.25-25.22,1-1.94,1.86-4,3.17-6.81.35.54.71,1.07,1.07,1.59C114.49,153.18,125.16,158.37,137.73,161.3Z"/><path class="cls-3" d="M218.72,22.23A22.33,22.33,0,0,1,185.79,42.3h0a22.17,22.17,0,0,1-4.69-3.39l0,0a22.2,22.2,0,0,1-7-16.08,22.34,22.34,0,1,1,44.68-.56Z"/><path class="cls-3" d="M269.39,54.56c-1.31,3.55-2.24,6.93-3.74,10-8.12,16.82-19.61,30.71-35.58,40.74-7.53,4.74-15,5.61-22.52.51-5.83-4-11.28-8.53-16.86-12.89-1.6-1.25-3-2.72-5.23-4.72-1.75,1.76-3.49,3.52-5.2,5.28-5.08,5.22-10,10.49-14.77,16.09-2.86,3.35-5.66,6.82-8.42,10.46,2.9.71,5,1.14,7,1.73,11.61,3.38,23.26,6.65,34.8,10.29a44.73,44.73,0,0,1,10,5c8.38,5.25,10.91,13.24,6.71,22.2a30.43,30.43,0,0,1-6.81,9.41c-6.19,5.64-12.93,10.68-19.38,16.05L184,189.24l-.71.59-.49.41-1.71,1.41c-5.12,4.25-10.23,8.53-15.22,12.93a74.27,74.27,0,0,0-14.46,17.55c-.69,1.15-1.35,2.31-2,3.49-.45.83-.88,1.66-1.31,2.51s-.89,1.58-1.88,3.3a30.36,30.36,0,0,1-1-4.17,65.15,65.15,0,0,1,4.15-25.48c.16-.44.32-.89.49-1.33,5.75-15.51,14.55-28.84,28-38.7l1.55-1.1c.73-.52,1.38-1.15,2.29-1.92-1.94-1.79-4.06-1.13-5.94-1.32h0c-8.78-.85-17.58-1.55-26.36-2.43-3.09-.3-6.17-.62-9.26-1-6.15-.72-11.81-3.26-17.15-6.46-11.53-6.89-18.88-23.76-8.84-38,.06-.1.12-.18.19-.28,4.12-5.74,8.78-11.11,13.23-16.62,4.74-5.88,8.44-12.32,10.13-19.72a102.93,102.93,0,0,0,1.67-10.48,8.43,8.43,0,0,0-4.19-8.54,72.76,72.76,0,0,0-20.39-9c-4.12-1.12-7.71.49-11.28,2.11C90.07,53,76.68,59.16,63.27,65.23a15.06,15.06,0,0,1-6.68,1.55c3.4-4.36,6.52-9,10.24-13,9.07-9.94,18.72-19.24,30.43-26.19a29.4,29.4,0,0,1,19.26-4.2C136.88,26,156.37,31.1,174,42.25c1,.62,1.91,1.24,2.85,1.87q2.77,1.88,5.4,3.9h0a78.94,78.94,0,0,1,11.46,10.71c1,1.09,1.89,2.23,2.79,3.4,4.66,6.06,9.69,11.83,14.62,17.68,1.19,1.41,2.7,2.56,4,3.88,2.9,2.9,5.94,3,9.66,1.3a155.07,155.07,0,0,0,37.56-25.07q2.91-2.61,5.84-5.18C268.28,54.65,268.51,54.69,269.39,54.56Z"/></g></g></svg>